<svg width="56" height="51" viewBox="0 0 56 51" fill="none" xmlns="http://www.w3.org/2000/svg">
<path d="M12.7235 25.3739C11.8216 24.4719 11.1231 23.3874 10.6747 22.1933C10.2263 20.9991 10.0384 19.7229 10.1235 18.4502C10.2087 17.1775 10.565 15.9377 11.1685 14.814C11.7721 13.6903 12.6089 12.7086 13.6229 11.9347C14.6369 11.1609 15.8046 10.6127 17.0478 10.3271C18.2909 10.0415 19.5808 10.025 20.8308 10.2786C22.0809 10.5323 23.2623 11.0503 24.2958 11.798C25.3293 12.5456 26.191 13.5055 26.8231 14.6134H29.1769C29.809 13.5055 30.6707 12.5456 31.7042 11.798C32.7377 11.0503 33.9191 10.5323 35.1692 10.2786C36.4192 10.025 37.7091 10.0415 38.9522 10.3271C40.1954 10.6127 41.3631 11.1609 42.3771 11.9347C43.3911 12.7086 44.2279 13.6903 44.8315 14.814C45.435 15.9377 45.7913 17.1775 45.8765 18.4502C45.9616 19.7229 45.7737 20.9991 45.3253 22.1933C44.8769 23.3874 44.1784 24.4719 43.2765 25.3739L28 40.6547L12.7235 25.376V25.3739ZM44.7629 26.8687C45.8411 25.7904 46.6846 24.5007 47.2402 23.0806C47.7958 21.6605 48.0516 20.1408 47.9914 18.617C47.9312 17.0933 47.5564 15.5985 46.8905 14.2267C46.2246 12.8548 45.2821 11.6356 44.1221 10.6457C42.9622 9.65577 41.61 8.91657 40.1505 8.47459C38.6911 8.0326 37.1559 7.89739 35.6417 8.07745C34.1274 8.25751 32.6668 8.74895 31.3517 9.52087C30.0366 10.2928 28.8954 11.3285 28 12.5628C27.1046 11.3285 25.9634 10.2928 24.6483 9.52087C23.3332 8.74895 21.8726 8.25751 20.3583 8.07745C18.8441 7.89739 17.3089 8.0326 15.8495 8.47459C14.39 8.91657 13.0378 9.65577 11.8779 10.6457C10.7179 11.6356 9.7754 12.8548 9.10951 14.2267C8.44362 15.5985 8.0688 17.0933 8.00861 18.617C7.94843 20.1408 8.20418 21.6605 8.7598 23.0806C9.31541 24.5007 10.1589 25.7904 11.2371 26.8687L28 43.6295L44.7629 26.8708V26.8687Z" fill="#FF0B37"/>
<g filter="url(#filter0_f_1_141)">
<path d="M12.7235 25.3739C11.8216 24.4719 11.1231 23.3874 10.6747 22.1933C10.2263 20.9991 10.0384 19.7229 10.1235 18.4502C10.2087 17.1775 10.565 15.9377 11.1685 14.814C11.7721 13.6903 12.6089 12.7086 13.6229 11.9347C14.6369 11.1609 15.8046 10.6127 17.0478 10.3271C18.2909 10.0415 19.5808 10.025 20.8308 10.2786C22.0809 10.5323 23.2623 11.0503 24.2958 11.798C25.3293 12.5456 26.191 13.5055 26.8231 14.6134H29.1769C29.809 13.5055 30.6707 12.5456 31.7042 11.798C32.7377 11.0503 33.9191 10.5323 35.1692 10.2786C36.4192 10.025 37.7091 10.0415 38.9522 10.3271C40.1954 10.6127 41.3631 11.1609 42.3771 11.9347C43.3911 12.7086 44.2279 13.6903 44.8315 14.814C45.435 15.9377 45.7913 17.1775 45.8765 18.4502C45.9617 19.7229 45.7737 20.9991 45.3253 22.1933C44.8769 23.3874 44.1784 24.4719 43.2765 25.3739L28 40.6547L12.7235 25.376V25.3739ZM44.7629 26.8687C45.8411 25.7904 46.6846 24.5007 47.2402 23.0806C47.7958 21.6605 48.0516 20.1408 47.9914 18.617C47.9312 17.0933 47.5564 15.5985 46.8905 14.2267C46.2246 12.8548 45.2821 11.6356 44.1221 10.6457C42.9622 9.65577 41.61 8.91657 40.1505 8.47459C38.6911 8.0326 37.1559 7.89739 35.6417 8.07745C34.1274 8.25751 32.6668 8.74895 31.3517 9.52087C30.0366 10.2928 28.8954 11.3285 28 12.5628C27.1046 11.3285 25.9634 10.2928 24.6483 9.52087C23.3332 8.74895 21.8726 8.25751 20.3583 8.07745C18.8441 7.89739 17.3089 8.0326 15.8495 8.47459C14.39 8.91657 13.0378 9.65577 11.8779 10.6457C10.7179 11.6356 9.7754 12.8548 9.10951 14.2267C8.44362 15.5985 8.0688 17.0933 8.00861 18.617C7.94843 20.1408 8.20418 21.6605 8.7598 23.0806C9.31541 24.5007 10.1589 25.7904 11.2371 26.8687L28 43.6295L44.7629 26.8708V26.8687Z" fill="white"/>
</g>
<path d="M44.7629 26.8687C45.8411 25.7904 46.6846 24.5007 47.2402 23.0806C47.7958 21.6605 48.0516 20.1408 47.9914 18.617C47.9312 17.0933 47.5564 15.5985 46.8905 14.2267C46.2246 12.8548 45.2821 11.6356 44.1221 10.6457C42.9622 9.65577 41.61 8.91657 40.1505 8.47459C38.6911 8.0326 37.1559 7.89739 35.6417 8.07745C34.1274 8.25751 32.6668 8.74895 31.3517 9.52087C30.0366 10.2928 28.8954 11.3285 28 12.5628C27.1046 11.3285 25.9634 10.2928 24.6483 9.52087C23.3332 8.74895 21.8726 8.25751 20.3583 8.07745C18.8441 7.89739 17.3089 8.0326 15.8495 8.47459C14.39 8.91657 13.0378 9.65577 11.8779 10.6457C10.7179 11.6356 9.7754 12.8548 9.10951 14.2267C8.44362 15.5985 8.0688 17.0933 8.00861 18.617C7.94843 20.1408 8.20418 21.6605 8.7598 23.0806C9.31541 24.5007 10.1589 25.7904 11.2371 26.8687L28 43.6295L44.7629 26.8708V26.8687Z" fill="#FF0B37"/>
<defs>
<filter id="filter0_f_1_141" x="0.723745" y="0.723867" width="54.5525" height="50.1819" filterUnits="userSpaceOnUse" color-interpolation-filters="sRGB">
<feFlood flood-opacity="0" result="BackgroundImageFix"/>
<feBlend mode="normal" in="SourceGraphic" in2="BackgroundImageFix" result="shape"/>
<feGaussianBlur stdDeviation="3.63813" result="effect1_foregroundBlur_1_141"/>
</filter>
</defs>
</svg>
