<svg width="51" height="52" viewBox="0 0 51 52" fill="none" xmlns="http://www.w3.org/2000/svg">
<g filter="url(#filter0_d_1_87)">
<path d="M20.2502 32.5H23.7502V18.5H20.2502V32.5ZM25.5002 8C15.8402 8 8.00024 15.84 8.00024 25.5C8.00024 35.16 15.8402 43 25.5002 43C35.1602 43 43.0002 35.16 43.0002 25.5C43.0002 15.84 35.1602 8 25.5002 8ZM25.5002 39.5C17.7827 39.5 11.5002 33.2175 11.5002 25.5C11.5002 17.7825 17.7827 11.5 25.5002 11.5C33.2177 11.5 39.5002 17.7825 39.5002 25.5C39.5002 33.2175 33.2177 39.5 25.5002 39.5ZM27.2502 32.5H30.7502V18.5H27.2502V32.5Z" fill="white"/>
</g>
<g filter="url(#filter1_f_1_87)">
<path d="M20.2502 32.5H23.7502V18.5H20.2502V32.5ZM25.5002 8C15.8402 8 8.00024 15.84 8.00024 25.5C8.00024 35.16 15.8402 43 25.5002 43C35.1602 43 43.0002 35.16 43.0002 25.5C43.0002 15.84 35.1602 8 25.5002 8ZM25.5002 39.5C17.7827 39.5 11.5002 33.2175 11.5002 25.5C11.5002 17.7825 17.7827 11.5 25.5002 11.5C33.2177 11.5 39.5002 17.7825 39.5002 25.5C39.5002 33.2175 33.2177 39.5 25.5002 39.5ZM27.2502 32.5H30.7502V18.5H27.2502V32.5Z" fill="white"/>
</g>
<defs>
<filter id="filter0_d_1_87" x="5.57024" y="8" width="39.86" height="43.43" filterUnits="userSpaceOnUse" color-interpolation-filters="sRGB">
<feFlood flood-opacity="0" result="BackgroundImageFix"/>
<feColorMatrix in="SourceAlpha" type="matrix" values="0 0 0 0 0 0 0 0 0 0 0 0 0 0 0 0 0 0 127 0" result="hardAlpha"/>
<feOffset dy="6"/>
<feGaussianBlur stdDeviation="1.215"/>
<feComposite in2="hardAlpha" operator="out"/>
<feColorMatrix type="matrix" values="0 0 0 0 0 0 0 0 0 0 0 0 0 0 0 0 0 0 0.69 0"/>
<feBlend mode="normal" in2="BackgroundImageFix" result="effect1_dropShadow_1_87"/>
<feBlend mode="normal" in="SourceGraphic" in2="effect1_dropShadow_1_87" result="shape"/>
</filter>
<filter id="filter1_f_1_87" x="0.720244" y="0.72" width="49.56" height="49.56" filterUnits="userSpaceOnUse" color-interpolation-filters="sRGB">
<feFlood flood-opacity="0" result="BackgroundImageFix"/>
<feBlend mode="normal" in="SourceGraphic" in2="BackgroundImageFix" result="shape"/>
<feGaussianBlur stdDeviation="3.64" result="effect1_foregroundBlur_1_87"/>
</filter>
</defs>
</svg>
