<svg width="55" height="52" viewBox="0 0 55 52" fill="none" xmlns="http://www.w3.org/2000/svg">
<g filter="url(#filter0_f_1_157)">
<path d="M36.6137 20.0944L27.4165 10.8917L12.9338 25.3829H16.1754V41.7433H22.3069V29.473H32.5261V41.7433H38.6576V25.3829H41.8991L38.6576 22.1395V15.1577H36.6137V20.0944ZM8 27.428L27.4165 8L34.5699 15.1577V13.1126H40.7014V21.2928L46.8329 27.428H40.7014V43.7843H30.4822V31.514H24.3507V43.7843H14.1315V27.428H8Z" fill="white"/>
</g>
<path d="M8 27.4281L27.4165 8.00012L34.5699 15.1578V13.1127H40.7014V21.2929L46.8329 27.4281H40.7014V43.7844H30.4822V31.5141H24.3507V43.7844H14.1315V27.4281H8Z" fill="white"/>
<defs>
<filter id="filter0_f_1_157" x="0.723745" y="0.723745" width="53.3854" height="50.3368" filterUnits="userSpaceOnUse" color-interpolation-filters="sRGB">
<feFlood flood-opacity="0" result="BackgroundImageFix"/>
<feBlend mode="normal" in="SourceGraphic" in2="BackgroundImageFix" result="shape"/>
<feGaussianBlur stdDeviation="3.63813" result="effect1_foregroundBlur_1_157"/>
</filter>
</defs>
</svg>
