<svg width="44" height="53" viewBox="0 0 44 53" fill="none" xmlns="http://www.w3.org/2000/svg">
<g filter="url(#filter0_d_1_88)">
<path d="M14.0002 8H30.0002C31.5915 8 33.1176 8.63214 34.2428 9.75736C35.368 10.8826 36.0002 12.4087 36.0002 14V44L22.0002 38L8.00018 44V14C8.00018 12.4087 8.63232 10.8826 9.75754 9.75736C10.8828 8.63214 12.4089 8 14.0002 8ZM14.0002 10C12.9393 10 11.9219 10.4214 11.1718 11.1716C10.4216 11.9217 10.0002 12.9391 10.0002 14V40.98L22.0002 35.884L34.0002 40.978V14C34.0002 12.9391 33.5788 11.9217 32.8286 11.1716C32.0785 10.4214 31.061 10 30.0002 10H14.0002Z" fill="white"/>
</g>
<g filter="url(#filter1_f_1_88)">
<path d="M14.0002 8H30.0002C31.5915 8 33.1176 8.63214 34.2428 9.75736C35.368 10.8826 36.0002 12.4087 36.0002 14V44L22.0002 38L8.00018 44V14C8.00018 12.4087 8.63232 10.8826 9.75754 9.75736C10.8828 8.63214 12.4089 8 14.0002 8ZM14.0002 10C12.9393 10 11.9219 10.4214 11.1718 11.1716C10.4216 11.9217 10.0002 12.9391 10.0002 14V40.98L22.0002 35.884L34.0002 40.978V14C34.0002 12.9391 33.5788 11.9217 32.8286 11.1716C32.0785 10.4214 31.061 10 30.0002 10H14.0002Z" fill="white"/>
</g>
<defs>
<filter id="filter0_d_1_88" x="5.57476" y="8" width="32.8508" height="44.4254" filterUnits="userSpaceOnUse" color-interpolation-filters="sRGB">
<feFlood flood-opacity="0" result="BackgroundImageFix"/>
<feColorMatrix in="SourceAlpha" type="matrix" values="0 0 0 0 0 0 0 0 0 0 0 0 0 0 0 0 0 0 127 0" result="hardAlpha"/>
<feOffset dy="6"/>
<feGaussianBlur stdDeviation="1.21271"/>
<feColorMatrix type="matrix" values="0 0 0 0 0 0 0 0 0 0 0 0 0 0 0 0 0 0 0.69 0"/>
<feBlend mode="normal" in2="BackgroundImageFix" result="effect1_dropShadow_1_88"/>
<feBlend mode="normal" in="SourceGraphic" in2="effect1_dropShadow_1_88" result="shape"/>
</filter>
<filter id="filter1_f_1_88" x="0.723928" y="0.723745" width="42.5525" height="50.5525" filterUnits="userSpaceOnUse" color-interpolation-filters="sRGB">
<feFlood flood-opacity="0" result="BackgroundImageFix"/>
<feBlend mode="normal" in="SourceGraphic" in2="BackgroundImageFix" result="shape"/>
<feGaussianBlur stdDeviation="3.63813" result="effect1_foregroundBlur_1_88"/>
</filter>
</defs>
</svg>
