<svg width="56" height="53" viewBox="0 0 56 53" fill="none" xmlns="http://www.w3.org/2000/svg">
<g filter="url(#filter0_d_1_84)">
<path d="M12.7235 25.3738C11.8216 24.4717 11.1231 23.3873 10.6747 22.1932C10.2263 20.999 10.0384 19.7228 10.1235 18.4501C10.2087 17.1774 10.565 15.9376 11.1685 14.8139C11.7721 13.6902 12.6089 12.7084 13.6229 11.9346C14.6369 11.1607 15.8046 10.6126 17.0478 10.327C18.2909 10.0414 19.5808 10.0249 20.8308 10.2785C22.0809 10.5322 23.2623 11.0502 24.2958 11.7978C25.3293 12.5455 26.191 13.5054 26.8231 14.6133H29.1769C29.809 13.5054 30.6707 12.5455 31.7042 11.7978C32.7377 11.0502 33.9191 10.5322 35.1692 10.2785C36.4192 10.0249 37.7091 10.0414 38.9522 10.327C40.1954 10.6126 41.3631 11.1607 42.3771 11.9346C43.3911 12.7084 44.2279 13.6902 44.8315 14.8139C45.435 15.9376 45.7913 17.1774 45.8765 18.4501C45.9616 19.7228 45.7737 20.999 45.3253 22.1932C44.8769 23.3873 44.1784 24.4717 43.2765 25.3738L28 40.6545L12.7235 25.3759V25.3738ZM44.7629 26.8686C45.8411 25.7903 46.6846 24.5005 47.2402 23.0804C47.7958 21.6603 48.0516 20.1406 47.9914 18.6169C47.9312 17.0932 47.5564 15.5984 46.8905 14.2265C46.2246 12.8547 45.2821 11.6355 44.1221 10.6456C42.9622 9.65565 41.61 8.91645 40.1505 8.47447C38.6911 8.03248 37.1559 7.89727 35.6417 8.07733C34.1274 8.25739 32.6668 8.74883 31.3517 9.52075C30.0366 10.2927 28.8954 11.3284 28 12.5627C27.1046 11.3284 25.9634 10.2927 24.6483 9.52075C23.3332 8.74883 21.8726 8.25739 20.3583 8.07733C18.8441 7.89727 17.3089 8.03248 15.8495 8.47447C14.39 8.91645 13.0378 9.65565 11.8779 10.6456C10.7179 11.6355 9.7754 12.8547 9.10951 14.2265C8.44362 15.5984 8.0688 17.0932 8.00861 18.6169C7.94843 20.1406 8.20418 21.6603 8.7598 23.0804C9.31541 24.5005 10.1589 25.7903 11.2371 26.8686L28 43.6294L44.7629 26.8707V26.8686Z" fill="white"/>
</g>
<g filter="url(#filter1_f_1_84)">
<path d="M12.7235 25.3738C11.8216 24.4717 11.1231 23.3873 10.6747 22.1932C10.2263 20.999 10.0384 19.7228 10.1235 18.4501C10.2087 17.1774 10.565 15.9376 11.1685 14.8139C11.7721 13.6902 12.6089 12.7084 13.6229 11.9346C14.6369 11.1607 15.8046 10.6126 17.0478 10.327C18.2909 10.0414 19.5808 10.0249 20.8308 10.2785C22.0809 10.5322 23.2623 11.0502 24.2958 11.7978C25.3293 12.5455 26.191 13.5054 26.8231 14.6133H29.1769C29.809 13.5054 30.6707 12.5455 31.7042 11.7978C32.7377 11.0502 33.9191 10.5322 35.1692 10.2785C36.4192 10.0249 37.7091 10.0414 38.9522 10.327C40.1954 10.6126 41.3631 11.1607 42.3771 11.9346C43.3911 12.7084 44.2279 13.6902 44.8315 14.8139C45.435 15.9376 45.7913 17.1774 45.8765 18.4501C45.9616 19.7228 45.7737 20.999 45.3253 22.1932C44.8769 23.3873 44.1784 24.4717 43.2765 25.3738L28 40.6545L12.7235 25.3759V25.3738ZM44.7629 26.8686C45.8411 25.7903 46.6846 24.5005 47.2402 23.0804C47.7958 21.6603 48.0516 20.1406 47.9914 18.6169C47.9312 17.0932 47.5564 15.5984 46.8905 14.2265C46.2246 12.8547 45.2821 11.6355 44.1221 10.6456C42.9622 9.65565 41.61 8.91645 40.1505 8.47447C38.6911 8.03248 37.1559 7.89727 35.6417 8.07733C34.1274 8.25739 32.6668 8.74883 31.3517 9.52075C30.0366 10.2927 28.8954 11.3284 28 12.5627C27.1046 11.3284 25.9634 10.2927 24.6483 9.52075C23.3332 8.74883 21.8726 8.25739 20.3583 8.07733C18.8441 7.89727 17.3089 8.03248 15.8495 8.47447C14.39 8.91645 13.0378 9.65565 11.8779 10.6456C10.7179 11.6355 9.7754 12.8547 9.10951 14.2265C8.44362 15.5984 8.0688 17.0932 8.00861 18.6169C7.94843 20.1406 8.20418 21.6603 8.7598 23.0804C9.31541 24.5005 10.1589 25.7903 11.2371 26.8686L28 43.6294L44.7629 26.8707V26.8686Z" fill="white"/>
</g>
<defs>
<filter id="filter0_d_1_84" x="5.57458" y="8" width="44.8508" height="44.0548" filterUnits="userSpaceOnUse" color-interpolation-filters="sRGB">
<feFlood flood-opacity="0" result="BackgroundImageFix"/>
<feColorMatrix in="SourceAlpha" type="matrix" values="0 0 0 0 0 0 0 0 0 0 0 0 0 0 0 0 0 0 127 0" result="hardAlpha"/>
<feOffset dy="6"/>
<feGaussianBlur stdDeviation="1.21271"/>
<feColorMatrix type="matrix" values="0 0 0 0 0 0 0 0 0 0 0 0 0 0 0 0 0 0 0.69 0"/>
<feBlend mode="normal" in2="BackgroundImageFix" result="effect1_dropShadow_1_84"/>
<feBlend mode="normal" in="SourceGraphic" in2="effect1_dropShadow_1_84" result="shape"/>
</filter>
<filter id="filter1_f_1_84" x="0.723745" y="0.723745" width="54.5525" height="50.1819" filterUnits="userSpaceOnUse" color-interpolation-filters="sRGB">
<feFlood flood-opacity="0" result="BackgroundImageFix"/>
<feBlend mode="normal" in="SourceGraphic" in2="BackgroundImageFix" result="shape"/>
<feGaussianBlur stdDeviation="3.63813" result="effect1_foregroundBlur_1_84"/>
</filter>
</defs>
</svg>
