<svg width="51" height="51" viewBox="0 0 51 51" fill="none" xmlns="http://www.w3.org/2000/svg">
<g filter="url(#filter0_f_1_160)">
<circle cx="25.5" cy="25.5" r="16" stroke="white" stroke-width="3"/>
</g>
<circle cx="25.5" cy="25.5" r="16" stroke="white" stroke-width="3"/>
<g filter="url(#filter1_f_1_160)">
<path d="M33.3888 23.8758C34.6117 24.6633 34.6117 26.4514 33.3888 27.2389L22.5828 34.1976C21.2519 35.0547 19.5 34.0991 19.5 32.5161L19.5 18.5986C19.5 17.0156 21.2519 16.06 22.5828 16.9171L33.3888 23.8758Z" fill="white"/>
</g>
<path d="M33.3888 23.8758C34.6117 24.6633 34.6117 26.4514 33.3888 27.2389L22.5828 34.1976C21.2519 35.0547 19.5 34.0991 19.5 32.5161L19.5 18.5986C19.5 17.0156 21.2519 16.06 22.5828 16.9171L33.3888 23.8758Z" fill="white"/>
<defs>
<filter id="filter0_f_1_160" x="0.72" y="0.72" width="49.56" height="49.56" filterUnits="userSpaceOnUse" color-interpolation-filters="sRGB">
<feFlood flood-opacity="0" result="BackgroundImageFix"/>
<feBlend mode="normal" in="SourceGraphic" in2="BackgroundImageFix" result="shape"/>
<feGaussianBlur stdDeviation="3.64" result="effect1_foregroundBlur_1_160"/>
</filter>
<filter id="filter1_f_1_160" x="12.22" y="9.31534" width="29.366" height="32.484" filterUnits="userSpaceOnUse" color-interpolation-filters="sRGB">
<feFlood flood-opacity="0" result="BackgroundImageFix"/>
<feBlend mode="normal" in="SourceGraphic" in2="BackgroundImageFix" result="shape"/>
<feGaussianBlur stdDeviation="3.64" result="effect1_foregroundBlur_1_160"/>
</filter>
</defs>
</svg>
